<svg xmlns="http://www.w3.org/2000/svg" version="1.1" xmlns:xlink="http://www.w3.org/1999/xlink" xmlns:svgjs="http://svgjs.dev/svgjs" width="1000" height="295" viewBox="0 0 1000 295"><g transform="matrix(1,0,0,1,-0.6056348047761162,0.5603477553587481)"><svg viewBox="0 0 396 117" data-background-color="#ffffff" preserveAspectRatio="xMidYMid meet" height="295" width="1000" xmlns="http://www.w3.org/2000/svg" xmlns:xlink="http://www.w3.org/1999/xlink"><g id="tight-bounds" transform="matrix(1,0,0,1,0.24008861730862918,-0.22219454244307713)"><svg viewBox="0 0 395.52 117.4442826650241" height="117.4442826650241" width="395.52"><g><svg viewBox="0 0 395.52 117.4442826650241" height="117.4442826650241" width="395.52"><g><svg viewBox="0 0 395.52 117.4442826650241" height="117.4442826650241" width="395.52"><g id="textblocktransform"><svg viewBox="0 0 395.52 117.4442826650241" height="117.4442826650241" width="395.52" id="textblock"><g><svg viewBox="0 0 395.52 117.4442826650241" height="117.4442826650241" width="395.52"><path d="M394.594 25.19C392.735 12.999 387.435 9.61 387.435 9.61 371.165-2.947 350.86-0.24 332.619 1.564 300.414 1.637 268.339 4.319 236.208 5.758 168.767 5.977 100.749 2.369 33.643 11.268 27.339 13.999-6.54 11.804 1.121 26.75 3.129 32.967 10.456 39.867 10.232 45.572 11.236 46.572 12.631 44.28 13.226 45.719 15.309 49.595 18.711 47.767 21.501 50.059 17.614 56.178 20.403 61.274 23.062 66.613 18.377 68.003 12.371 67.345 9.675 71.953 9.396 75.293 7.89 74.659 6.235 74.513 5.026 74.415 2.59 74.781 2.999 75.83 4.394 79.414-1.594 81.486 2.162 84.997-0.422 88.8 3.948 92.092 3.353 96.212 3.278 97.041 3.687 97.748 4.338 97.944 7.22 98.992 3.018 101.04 3.464 103.259 33.029 118.424 65.104 107.94 95.394 114.913 103.259 110.037 97.346 116.644 100.489 115.62 102.943 114.425 104.728 119.375 107.499 116.571 107.927 115.766 107.276 113.865 108.8 114.23 109.6 114.425 110.307 114.377 110.418 113.255 110.586 111.573 109.117 112.621 108.726 111.743 112.947 107.306 111.906 117.863 115.866 117.424 115.68 116.132 114.528 114.279 116.889 114.523 119.232 112.67 119.306 111.134 121.389 115.303 121.463 116.205 121.835 116.839 122.43 117.278 128.938 112.743 135.409 118.887 142.233 116.839 146.417 114.596 150.433 118.058 154.672 117.205 156.16 116.522 157.666 115.303 159.098 117.351 176.632 117.79 195.319 115.961 211.943 117.424 256.364 114.693 303.835 118.546 350.674 114.937 361.719 113.548 373.192 111.573 383.958 109.988 383.958 109.988 392.679 105.648 392.679 86.143S394.538 69.076 394.817 53.545C395.096 38.014 396.398 37.38 394.538 25.19Z" opacity="1" fill="#ff0000" data-fill-palette-color="tertiary"></path><g transform="matrix(1,0,0,1,55.76832,26.230666666666668)"><svg width="283.98335999999995" viewBox="2.799999952316284 -36.150001525878906 162.33999633789062 37.150001525878906" height="64.98294933169076" data-palette-color="#ffffff"><path d="M23.6-24.55L23.6-24.55 23.7-15.3Q23.7-14.35 24.75-14.35L24.75-14.35Q27.85-14.35 29.63-16.07 31.4-17.8 31.4-20.15 31.4-22.5 29.73-24.2 28.05-25.9 24.8-25.9L24.8-25.9Q23.6-25.9 23.6-24.55ZM36.7-9.6L36.7-9.6Q37.65-8.6 43.45-2.05L43.45-2.05Q43.8-1.6 43.8-1.25L43.8-1.25Q43.8 0.05 42.65 0.05L42.65 0.05Q40 0.1 37.33 0.1 34.65 0.1 32 0.05L32 0.05Q30.55 0.05 29.35-1.1L29.35-1.1 25.05-7.6Q24.8-7.9 24.45-8L24.45-8Q23.65-8.3 23.65-7.35L23.65-7.35 23.65-2.25Q23.65-0.1 20.83 0.05 18 0.2 14.65 0.2 11.3 0.2 6.55-0.05L6.55-0.05Q5.1-0.15 4.23-1.05 3.35-1.95 3.2-3.1L3.2-3.1Q2.8-7.5 2.8-16.93 2.8-26.35 3.1-30.65 3.4-34.95 7.45-35L7.45-35Q11.25-35.05 17.8-35.05 24.35-35.05 28.65-34.95L28.65-34.95Q34.85-34.85 38.8-30.35 42.75-25.85 42.75-20.2L42.75-20.2Q42.75-16.9 41.23-14.1 39.7-11.3 36.7-9.6ZM52.65-35L52.65-35 66.05-35Q68.15-35 68.82-33.95 69.5-32.9 69.72-29.63 69.95-26.35 69.95-16.93 69.95-7.5 69.55-3.1L69.55-3.1Q69.4-1.95 68.52-1.05 67.65-0.15 66.2-0.05L66.2-0.05Q63.35 0.15 59.6 0.15 55.85 0.15 52.5-0.05L52.5-0.05Q51.05-0.15 50.17-1.05 49.3-1.95 49.15-3.1L49.15-3.1Q48.75-7.5 48.75-16.93 48.75-26.35 48.97-29.63 49.2-32.9 49.87-33.95 50.55-35 52.65-35ZM93.6 1L93.6 1Q84.6 1 79.37-3.58 74.15-8.15 74.15-16.5L74.15-16.5Q74.15-21.6 75.82-25.45 77.5-29.3 80.55-31.6L80.55-31.6Q86.6-36.15 96.5-36.15L96.5-36.15Q102.9-36.15 109.3-34.4L109.3-34.4Q111.75-33.6 111.75-30.45L111.75-30.45Q111.75-26.15 109.05-26.15L109.05-26.15Q108.59-26.15 106.09-26.55 103.6-26.95 102.6-26.95L102.6-26.95Q99.05-26.95 97.12-24.48 95.2-22 95.2-18.57 95.2-15.15 97-12.55 98.8-9.95 101.9-9.85L101.9-9.85Q104-9.75 109.34-9.75L109.34-9.75Q111.95-9.75 112.2-7.3L112.2-7.3Q112.35-6.4 112.35-5.48 112.35-4.55 112.2-3.6L112.2-3.6Q111.9-1.8 109.4-0.98 106.9-0.15 102.2 0.43 97.5 1 93.6 1ZM146.84-0.85L146.84-0.85 140.99-7.85Q140.09-8.95 139.14-8.95L139.14-8.95Q137.99-8.95 137.99-7.05L137.99-7.05 137.99-2.3Q137.99-1.4 137.19-0.85 136.39-0.3 135.29-0.2L135.29-0.2Q132.14 0 128.17 0 124.19 0 120.64-0.2L120.64-0.2Q119.14-0.3 118.24-1.23 117.34-2.15 117.24-3.3L117.24-3.3Q116.84-7.7 116.84-16.98 116.84-26.25 117.07-29.55 117.29-32.85 117.97-33.93 118.64-35 120.74-35L120.74-35 134.14-35Q135.79-35 136.89-33.7 137.99-32.4 137.99-30.5L137.99-30.5 138.04-24.9Q138.04-23.85 138.59-23.85L138.59-23.85Q138.94-23.85 139.99-24.7L139.99-24.7 149.79-33.85Q150.99-35 152.67-35.02 154.34-35.05 156.24-35.05L156.24-35.05 160.09-35Q160.89-35 161.19-34.25 161.49-33.5 160.89-32.9L160.89-32.9Q155.14-27.15 149.39-22.25L149.39-22.25Q148.89-21.8 148.89-21.33 148.89-20.85 149.44-20.3L149.44-20.3 152.14-17.6Q154.19-15.55 155.52-14.25 156.84-12.95 158.64-11.1L158.64-11.1Q162.24-7.4 164.14-5.1L164.14-5.1Q165.14-3.9 165.14-2.65L165.14-2.65Q165.14-2.2 164.99-1.7L164.99-1.7Q164.44 0 162.59 0L162.59 0 149.14 0Q147.59 0 146.84-0.85Z" opacity="1" transform="matrix(1,0,0,1,0,0)" fill="#ffffff" class="wordmark-text-0" data-fill-palette-color="quaternary" id="text-0"></path></svg></g></svg></g></svg></g></svg></g><g></g></svg></g><defs></defs></svg><rect width="395.52" height="117.4442826650241" fill="none" stroke="none" visibility="hidden"></rect></g></svg></g></svg>